<svg xmlns="http://www.w3.org/2000/svg" xmlns:xlink="http://www.w3.org/1999/xlink" width="500" zoomAndPan="magnify" viewBox="0 0 375 374.999991" height="500" preserveAspectRatio="xMidYMid meet" version="1.0"><defs><g/><clipPath id="c7c5f936bd"><path d="M 100.222656 87 L 274.972656 87 L 274.972656 236.476562 L 100.222656 236.476562 Z M 100.222656 87 " clip-rule="nonzero"/></clipPath><clipPath id="c956561881"><path d="M 142.449219 81 L 255 81 L 255 207.132812 L 142.449219 207.132812 Z M 142.449219 81 " clip-rule="nonzero"/></clipPath><clipPath id="61c21146d2"><path d="M 175 32.382812 L 198 32.382812 L 198 55 L 175 55 Z M 175 32.382812 " clip-rule="nonzero"/></clipPath><clipPath id="71f8a310ed"><path d="M 142.449219 52 L 297.699219 52 L 297.699219 206 L 142.449219 206 Z M 142.449219 52 " clip-rule="nonzero"/></clipPath><clipPath id="b7484dc3db"><path d="M 142.449219 106 L 297.699219 106 L 297.699219 207.132812 L 142.449219 207.132812 Z M 142.449219 106 " clip-rule="nonzero"/></clipPath><clipPath id="2c0ed6a7eb"><path d="M 257 164 L 297.699219 164 L 297.699219 207.132812 L 257 207.132812 Z M 257 164 " clip-rule="nonzero"/></clipPath><clipPath id="8e1ad97ffa"><path d="M 94.601562 117.582031 L 280.398438 117.582031 L 280.398438 185.90625 L 94.601562 185.90625 Z M 94.601562 117.582031 " clip-rule="nonzero"/></clipPath><clipPath id="e712a94891"><path d="M 114.304688 122.53125 L 260.554688 122.53125 L 260.554688 181 L 114.304688 181 Z M 114.304688 122.53125 " clip-rule="nonzero"/></clipPath></defs><rect x="-37.5" width="450" fill="#ffffff" y="-37.499999" height="449.999989" fill-opacity="1"/><rect x="-37.5" width="450" fill="#ffffff" y="-37.499999" height="449.999989" fill-opacity="1"/><rect x="-37.5" width="450" fill="#300b0b" y="-37.499999" height="449.999989" fill-opacity="1"/><g clip-path="url(#c7c5f936bd)"><path fill="#ed1f24" d="M 249.4375 210.746094 C 265.871094 194.296875 274.972656 172.402344 274.972656 149.089844 L 272.53125 149.089844 C 272.53125 171.730469 263.710938 193.023438 247.703125 209.011719 C 231.691406 225 210.265625 233.914062 187.597656 233.914062 C 164.929688 233.914062 143.574219 225.105469 127.566406 209.082031 C 111.519531 193.058594 102.667969 171.765625 102.667969 149.089844 C 102.667969 126.453125 111.484375 105.125 127.53125 89.136719 L 125.792969 87.402344 C 109.324219 103.886719 100.222656 125.78125 100.222656 149.089844 C 100.222656 172.402344 109.324219 194.332031 125.832031 210.816406 C 142.335938 227.296875 164.257812 236.355469 187.597656 236.355469 C 210.902344 236.355469 232.898438 227.191406 249.402344 210.78125 C 249.402344 210.78125 249.402344 210.78125 249.4375 210.746094 Z M 249.4375 210.746094 " fill-opacity="1" fill-rule="nonzero"/></g><path fill="#ed1f24" d="M 129.550781 207.101562 C 129.585938 207.136719 129.585938 207.136719 129.585938 207.136719 C 145.097656 222.59375 165.675781 231.117188 187.597656 231.117188 C 209.523438 231.117188 230.132812 222.59375 245.648438 207.101562 C 261.160156 191.609375 269.695312 171.023438 269.695312 149.125 L 265.445312 149.125 C 265.445312 169.855469 257.335938 189.378906 242.636719 204.09375 C 227.9375 218.773438 208.386719 226.875 187.597656 226.875 C 166.808594 226.839844 147.257812 218.773438 132.59375 204.09375 C 117.898438 189.414062 109.75 169.820312 109.75 149.089844 C 109.75 128.328125 117.859375 108.800781 132.558594 94.121094 C 147.257812 79.441406 166.808594 71.34375 187.597656 71.34375 C 208.386719 71.34375 227.9375 79.476562 242.636719 94.121094 C 257.335938 108.800781 265.445312 128.328125 265.445312 149.089844 L 269.695312 149.089844 C 269.695312 127.230469 261.195312 106.644531 245.683594 91.152344 C 245.683594 91.152344 245.683594 91.152344 245.648438 91.117188 C 245.648438 91.117188 245.648438 91.117188 245.613281 91.082031 C 230.171875 75.65625 209.484375 67.097656 187.597656 67.097656 C 165.675781 67.097656 145.0625 75.621094 129.550781 91.117188 C 114.035156 106.609375 105.5 127.195312 105.5 149.089844 C 105.5 170.949219 114.070312 191.609375 129.550781 207.101562 Z M 129.550781 207.101562 " fill-opacity="1" fill-rule="nonzero"/><path fill="#ed1f24" d="M 122.570312 115.488281 C 122.820312 115.488281 123.03125 115.34375 123.136719 115.132812 C 123.351562 114.746094 123.527344 114.390625 123.742188 114 C 123.917969 113.683594 123.8125 113.292969 123.492188 113.117188 C 123.171875 112.941406 122.785156 113.046875 122.605469 113.363281 C 122.394531 113.753906 122.183594 114.144531 121.96875 114.53125 C 121.792969 114.851562 121.933594 115.238281 122.253906 115.417969 C 122.359375 115.453125 122.464844 115.488281 122.570312 115.488281 Z M 122.570312 115.488281 " fill-opacity="1" fill-rule="nonzero"/><path fill="#ed1f24" d="M 119.773438 121.359375 C 120.023438 121.359375 120.269531 121.21875 120.375 120.96875 C 120.554688 120.582031 120.730469 120.191406 120.871094 119.765625 C 121.011719 119.449219 120.871094 119.058594 120.554688 118.917969 C 120.234375 118.777344 119.84375 118.917969 119.703125 119.238281 C 119.527344 119.625 119.347656 120.050781 119.171875 120.4375 C 119.03125 120.792969 119.171875 121.183594 119.527344 121.324219 C 119.597656 121.359375 119.703125 121.359375 119.773438 121.359375 Z M 119.773438 121.359375 " fill-opacity="1" fill-rule="nonzero"/><path fill="#ed1f24" d="M 125.832031 109.863281 C 126.042969 109.863281 126.253906 109.757812 126.363281 109.578125 C 126.609375 109.226562 126.820312 108.871094 127.070312 108.519531 C 127.28125 108.234375 127.175781 107.8125 126.894531 107.597656 C 126.609375 107.386719 126.183594 107.492188 125.972656 107.777344 C 125.722656 108.128906 125.476562 108.519531 125.261719 108.871094 C 125.085938 109.15625 125.191406 109.578125 125.476562 109.757812 C 125.582031 109.828125 125.722656 109.863281 125.832031 109.863281 Z M 125.832031 109.863281 " fill-opacity="1" fill-rule="nonzero"/><path fill="#ed1f24" d="M 114.214844 138.089844 C 114.140625 138.515625 114.070312 138.9375 114.035156 139.398438 C 114 139.753906 114.25 140.070312 114.601562 140.140625 C 114.636719 140.140625 114.671875 140.140625 114.671875 140.140625 C 114.992188 140.140625 115.277344 139.894531 115.3125 139.574219 C 115.382812 139.152344 115.417969 138.726562 115.488281 138.300781 C 115.558594 137.949219 115.3125 137.59375 114.957031 137.558594 C 114.601562 137.523438 114.285156 137.734375 114.214844 138.089844 Z M 114.214844 138.089844 " fill-opacity="1" fill-rule="nonzero"/><path fill="#ed1f24" d="M 113.574219 144.597656 C 113.539062 145.023438 113.539062 145.484375 113.503906 145.90625 C 113.503906 146.261719 113.753906 146.578125 114.140625 146.578125 L 114.179688 146.578125 C 114.53125 146.578125 114.816406 146.296875 114.816406 145.941406 C 114.851562 145.519531 114.851562 145.09375 114.886719 144.667969 C 114.851562 144.316406 114.601562 144.03125 114.25 143.996094 C 113.894531 143.960938 113.574219 144.246094 113.574219 144.597656 Z M 113.574219 144.597656 " fill-opacity="1" fill-rule="nonzero"/><path fill="#ed1f24" d="M 211.222656 80.222656 C 211.648438 80.363281 212.035156 80.503906 212.425781 80.644531 C 212.496094 80.679688 212.566406 80.679688 212.636719 80.679688 C 212.921875 80.679688 213.167969 80.503906 213.242188 80.257812 C 213.347656 79.902344 213.207031 79.550781 212.851562 79.40625 C 212.425781 79.265625 212.035156 79.125 211.609375 78.984375 C 211.257812 78.875 210.902344 79.054688 210.796875 79.371094 C 210.691406 79.761719 210.867188 80.113281 211.222656 80.222656 Z M 211.222656 80.222656 " fill-opacity="1" fill-rule="nonzero"/><path fill="#ed1f24" d="M 130.152344 104.34375 C 130.398438 103.992188 130.683594 103.671875 130.964844 103.320312 C 131.179688 103.035156 131.144531 102.648438 130.859375 102.398438 C 130.574219 102.1875 130.1875 102.222656 129.9375 102.503906 C 129.65625 102.859375 129.40625 103.175781 129.125 103.53125 C 128.875 103.8125 128.945312 104.203125 129.230469 104.449219 C 129.335938 104.558594 129.476562 104.59375 129.621094 104.59375 C 129.796875 104.59375 130.007812 104.523438 130.152344 104.34375 Z M 130.152344 104.34375 " fill-opacity="1" fill-rule="nonzero"/><path fill="#ed1f24" d="M 134.292969 99.429688 C 134.578125 99.109375 134.898438 98.792969 135.179688 98.507812 C 135.429688 98.261719 135.429688 97.835938 135.179688 97.589844 C 134.933594 97.339844 134.507812 97.339844 134.257812 97.589844 C 133.941406 97.90625 133.65625 98.226562 133.339844 98.542969 C 133.089844 98.792969 133.089844 99.214844 133.375 99.464844 C 133.515625 99.570312 133.691406 99.640625 133.835938 99.640625 C 134.011719 99.640625 134.1875 99.570312 134.292969 99.429688 Z M 134.292969 99.429688 " fill-opacity="1" fill-rule="nonzero"/><path fill="#ed1f24" d="M 116.941406 171.765625 C 117.011719 172.046875 117.292969 172.222656 117.578125 172.222656 C 117.648438 172.222656 117.71875 172.222656 117.789062 172.1875 C 118.144531 172.082031 118.320312 171.730469 118.214844 171.375 C 118.039062 170.949219 117.933594 170.5625 117.789062 170.136719 C 117.683594 169.785156 117.328125 169.605469 116.976562 169.710938 C 116.621094 169.820312 116.445312 170.171875 116.550781 170.527344 C 116.691406 170.949219 116.796875 171.375 116.941406 171.765625 Z M 116.941406 171.765625 " fill-opacity="1" fill-rule="nonzero"/><path fill="#ed1f24" d="M 115.699219 133.738281 C 115.734375 133.738281 115.808594 133.738281 115.84375 133.738281 C 116.125 133.738281 116.410156 133.527344 116.480469 133.242188 C 116.585938 132.820312 116.65625 132.394531 116.761719 132.007812 C 116.835938 131.617188 116.621094 131.261719 116.265625 131.191406 C 115.914062 131.121094 115.558594 131.332031 115.488281 131.6875 C 115.382812 132.113281 115.277344 132.535156 115.203125 132.960938 C 115.132812 133.316406 115.347656 133.667969 115.699219 133.738281 Z M 115.699219 133.738281 " fill-opacity="1" fill-rule="nonzero"/><path fill="#ed1f24" d="M 114.105469 158.996094 C 114.140625 159.3125 114.425781 159.5625 114.746094 159.5625 C 114.78125 159.5625 114.816406 159.5625 114.816406 159.5625 C 115.167969 159.527344 115.417969 159.171875 115.347656 158.816406 C 115.277344 158.394531 115.242188 157.96875 115.203125 157.542969 C 115.167969 157.191406 114.851562 156.945312 114.496094 156.980469 C 114.140625 157.015625 113.894531 157.332031 113.929688 157.6875 C 113.964844 158.109375 114.035156 158.570312 114.105469 158.996094 Z M 114.105469 158.996094 " fill-opacity="1" fill-rule="nonzero"/><path fill="#ed1f24" d="M 206.261719 78.734375 C 206.335938 78.734375 206.371094 78.769531 206.441406 78.769531 C 206.722656 78.769531 207.007812 78.59375 207.078125 78.277344 C 207.183594 77.921875 206.972656 77.566406 206.617188 77.496094 C 206.191406 77.390625 205.765625 77.285156 205.34375 77.179688 C 204.988281 77.109375 204.632812 77.320312 204.5625 77.640625 C 204.457031 77.992188 204.667969 78.347656 205.023438 78.417969 C 205.449219 78.523438 205.875 78.628906 206.261719 78.734375 Z M 206.261719 78.734375 " fill-opacity="1" fill-rule="nonzero"/><path fill="#ed1f24" d="M 115.242188 165.46875 C 115.3125 165.785156 115.59375 165.964844 115.878906 165.964844 C 115.914062 165.964844 115.984375 165.964844 116.019531 165.964844 C 116.375 165.890625 116.585938 165.539062 116.515625 165.183594 C 116.410156 164.726562 116.304688 164.335938 116.230469 163.910156 C 116.160156 163.558594 115.808594 163.347656 115.453125 163.417969 C 115.097656 163.488281 114.886719 163.839844 114.957031 164.195312 C 115.0625 164.621094 115.132812 165.042969 115.242188 165.46875 Z M 115.242188 165.46875 " fill-opacity="1" fill-rule="nonzero"/><path fill="#ed1f24" d="M 117.292969 127.441406 C 117.367188 127.476562 117.4375 127.476562 117.507812 127.476562 C 117.789062 127.476562 118.039062 127.300781 118.144531 127.019531 C 118.285156 126.59375 118.390625 126.203125 118.535156 125.78125 C 118.640625 125.425781 118.464844 125.074219 118.109375 124.96875 C 117.753906 124.859375 117.402344 125.039062 117.292969 125.390625 C 117.152344 125.816406 117.011719 126.242188 116.871094 126.628906 C 116.761719 126.984375 116.941406 127.335938 117.292969 127.441406 Z M 117.292969 127.441406 " fill-opacity="1" fill-rule="nonzero"/><path fill="#ed1f24" d="M 218.375 83.121094 C 218.480469 83.15625 218.554688 83.191406 218.660156 83.191406 C 218.90625 83.191406 219.15625 83.050781 219.261719 82.804688 C 219.402344 82.484375 219.261719 82.097656 218.941406 81.953125 C 218.554688 81.777344 218.164062 81.601562 217.738281 81.421875 C 217.417969 81.28125 217.03125 81.421875 216.886719 81.742188 C 216.746094 82.058594 216.886719 82.449219 217.207031 82.589844 C 217.597656 82.769531 217.988281 82.945312 218.375 83.121094 Z M 218.375 83.121094 " fill-opacity="1" fill-rule="nonzero"/><path fill="#ed1f24" d="M 113.503906 152.488281 C 113.503906 152.804688 113.789062 153.085938 114.179688 153.085938 C 114.53125 153.085938 114.816406 152.769531 114.816406 152.414062 C 114.78125 151.992188 114.78125 151.566406 114.78125 151.140625 C 114.78125 150.789062 114.460938 150.503906 114.105469 150.503906 C 113.753906 150.503906 113.46875 150.824219 113.46875 151.175781 C 113.46875 151.601562 113.503906 152.0625 113.503906 152.488281 Z M 113.503906 152.488281 " fill-opacity="1" fill-rule="nonzero"/><path fill="#ed1f24" d="M 239.167969 97.695312 C 239.238281 97.765625 239.34375 97.871094 239.378906 97.90625 C 239.519531 98.046875 239.660156 98.082031 239.839844 98.082031 C 240.015625 98.082031 240.15625 98.011719 240.300781 97.90625 C 240.546875 97.660156 240.546875 97.234375 240.300781 96.988281 C 240.230469 96.917969 240.121094 96.8125 240.050781 96.738281 C 239.804688 96.527344 239.589844 96.28125 239.378906 96.066406 C 239.128906 95.820312 238.707031 95.820312 238.457031 96.066406 C 238.210938 96.316406 238.210938 96.738281 238.457031 96.988281 C 238.671875 97.199219 238.917969 97.484375 239.167969 97.695312 Z M 239.167969 97.695312 " fill-opacity="1" fill-rule="nonzero"/><path fill="#ed1f24" d="M 199.996094 77.390625 C 200.03125 77.390625 200.066406 77.390625 200.101562 77.390625 C 200.417969 77.390625 200.703125 77.179688 200.738281 76.859375 C 200.808594 76.507812 200.5625 76.152344 200.207031 76.117188 C 199.78125 76.046875 199.355469 75.976562 198.894531 75.90625 C 198.542969 75.835938 198.222656 76.082031 198.152344 76.4375 C 198.082031 76.789062 198.363281 77.109375 198.71875 77.179688 C 199.144531 77.25 199.570312 77.320312 199.996094 77.390625 Z M 199.996094 77.390625 " fill-opacity="1" fill-rule="nonzero"/><path fill="#ed1f24" d="M 138.933594 94.902344 C 139.253906 94.617188 139.570312 94.335938 139.890625 94.050781 C 140.175781 93.804688 140.210938 93.414062 139.960938 93.132812 C 139.714844 92.847656 139.324219 92.8125 139.039062 93.0625 C 138.722656 93.34375 138.367188 93.628906 138.050781 93.945312 C 137.800781 94.191406 137.765625 94.617188 138.015625 94.863281 C 138.15625 95.007812 138.332031 95.078125 138.507812 95.078125 C 138.652344 95.078125 138.828125 95.007812 138.933594 94.902344 Z M 138.933594 94.902344 " fill-opacity="1" fill-rule="nonzero"/><path fill="#ed1f24" d="M 119.101562 175.867188 C 118.78125 176.007812 118.605469 176.398438 118.746094 176.714844 C 118.921875 177.105469 119.066406 177.53125 119.242188 177.917969 C 119.347656 178.167969 119.597656 178.308594 119.84375 178.308594 C 119.914062 178.308594 120.023438 178.308594 120.09375 178.273438 C 120.410156 178.132812 120.589844 177.742188 120.445312 177.425781 C 120.269531 177 120.09375 176.609375 119.949219 176.222656 C 119.808594 175.902344 119.453125 175.726562 119.101562 175.867188 Z M 119.101562 175.867188 " fill-opacity="1" fill-rule="nonzero"/><path fill="#ed1f24" d="M 261.761719 148.949219 C 261.761719 148.59375 261.480469 148.3125 261.125 148.3125 C 260.769531 148.3125 260.488281 148.59375 260.488281 148.949219 L 260.488281 149.089844 L 261.796875 149.089844 Z M 261.761719 148.949219 " fill-opacity="1" fill-rule="nonzero"/><path fill="#ed1f24" d="M 143.894531 90.832031 C 144.246094 90.585938 144.566406 90.335938 144.921875 90.054688 C 145.203125 89.84375 145.273438 89.453125 145.0625 89.136719 C 144.847656 88.816406 144.460938 88.78125 144.140625 88.992188 C 143.785156 89.242188 143.433594 89.523438 143.078125 89.773438 C 142.796875 89.984375 142.722656 90.40625 142.9375 90.691406 C 143.113281 90.867188 143.328125 90.972656 143.503906 90.972656 C 143.644531 90.972656 143.785156 90.9375 143.894531 90.832031 Z M 143.894531 90.832031 " fill-opacity="1" fill-rule="nonzero"/><path fill="#ed1f24" d="M 261.726562 150.433594 C 261.726562 150.011719 261.726562 149.550781 261.726562 149.125 L 260.417969 149.125 C 260.453125 149.550781 260.453125 149.976562 260.453125 150.398438 C 260.453125 150.753906 260.734375 151.070312 261.089844 151.070312 C 261.445312 151.070312 261.726562 150.789062 261.726562 150.433594 Z M 261.726562 150.433594 " fill-opacity="1" fill-rule="nonzero"/><path fill="#ed1f24" d="M 193.691406 75.269531 C 193.265625 75.234375 192.804688 75.199219 192.378906 75.164062 C 192.027344 75.128906 191.707031 75.410156 191.671875 75.765625 C 191.671875 76.152344 191.953125 76.472656 192.308594 76.472656 C 192.734375 76.507812 193.160156 76.542969 193.582031 76.578125 C 193.621094 76.578125 193.621094 76.578125 193.65625 76.578125 C 193.972656 76.578125 194.292969 76.328125 194.292969 75.976562 C 194.328125 75.621094 194.042969 75.304688 193.691406 75.269531 Z M 193.691406 75.269531 " fill-opacity="1" fill-rule="nonzero"/><path fill="#ed1f24" d="M 148.886719 87.296875 C 148.992188 87.296875 149.136719 87.261719 149.242188 87.1875 C 149.59375 86.976562 149.984375 86.730469 150.339844 86.515625 C 150.65625 86.339844 150.765625 85.914062 150.550781 85.632812 C 150.375 85.316406 149.984375 85.207031 149.667969 85.421875 C 149.277344 85.632812 148.921875 85.878906 148.53125 86.09375 C 148.214844 86.269531 148.144531 86.695312 148.320312 86.976562 C 148.460938 87.1875 148.675781 87.296875 148.886719 87.296875 Z M 148.886719 87.296875 " fill-opacity="1" fill-rule="nonzero"/><path fill="#ed1f24" d="M 211.363281 217.925781 C 210.972656 218.066406 210.546875 218.207031 210.125 218.347656 C 209.769531 218.457031 209.59375 218.84375 209.699219 219.164062 C 209.804688 219.445312 210.054688 219.621094 210.300781 219.621094 C 210.371094 219.621094 210.441406 219.621094 210.511719 219.585938 C 210.9375 219.445312 211.328125 219.304688 211.753906 219.164062 C 212.105469 219.058594 212.285156 218.667969 212.140625 218.347656 C 212.070312 217.996094 211.71875 217.820312 211.363281 217.925781 Z M 211.363281 217.925781 " fill-opacity="1" fill-rule="nonzero"/><path fill="#ed1f24" d="M 255.140625 118.457031 C 254.960938 118.070312 254.785156 117.679688 254.574219 117.292969 C 254.429688 116.972656 254.042969 116.832031 253.6875 116.972656 C 253.367188 117.113281 253.226562 117.503906 253.367188 117.855469 C 253.582031 118.210938 253.757812 118.601562 253.933594 118.988281 C 254.042969 119.238281 254.289062 119.378906 254.539062 119.378906 C 254.644531 119.378906 254.714844 119.34375 254.820312 119.308594 C 255.140625 119.164062 255.28125 118.777344 255.140625 118.457031 Z M 255.140625 118.457031 " fill-opacity="1" fill-rule="nonzero"/><path fill="#ed1f24" d="M 205.199219 219.765625 C 204.777344 219.871094 204.351562 219.976562 203.960938 220.046875 C 203.605469 220.117188 203.394531 220.472656 203.464844 220.824219 C 203.535156 221.144531 203.820312 221.320312 204.101562 221.320312 C 204.136719 221.320312 204.210938 221.320312 204.246094 221.320312 C 204.667969 221.214844 205.09375 221.109375 205.519531 221.003906 C 205.875 220.933594 206.085938 220.578125 205.980469 220.222656 C 205.910156 219.871094 205.554688 219.660156 205.199219 219.765625 Z M 205.199219 219.765625 " fill-opacity="1" fill-rule="nonzero"/><path fill="#ed1f24" d="M 198.859375 221.039062 C 198.4375 221.109375 198.011719 221.179688 197.585938 221.214844 C 197.230469 221.25 196.984375 221.605469 197.019531 221.957031 C 197.054688 222.277344 197.339844 222.523438 197.65625 222.523438 C 197.691406 222.523438 197.726562 222.523438 197.761719 222.523438 C 198.1875 222.453125 198.613281 222.417969 199.074219 222.347656 C 199.425781 222.277344 199.675781 221.957031 199.605469 221.605469 C 199.570312 221.214844 199.214844 220.96875 198.859375 221.039062 Z M 198.859375 221.039062 " fill-opacity="1" fill-rule="nonzero"/><path fill="#ed1f24" d="M 259.175781 129.53125 C 259.070312 129.175781 258.714844 128.964844 258.363281 129.070312 C 258.007812 129.175781 257.796875 129.53125 257.902344 129.882812 C 258.007812 130.273438 258.113281 130.695312 258.222656 131.121094 C 258.292969 131.40625 258.574219 131.617188 258.859375 131.617188 C 258.929688 131.617188 258.964844 131.617188 259.035156 131.582031 C 259.390625 131.476562 259.601562 131.121094 259.496094 130.804688 C 259.390625 130.378906 259.285156 129.953125 259.175781 129.53125 Z M 259.175781 129.53125 " fill-opacity="1" fill-rule="nonzero"/><path fill="#ed1f24" d="M 257.546875 124.507812 C 257.40625 124.082031 257.265625 123.695312 257.085938 123.269531 C 256.945312 122.914062 256.589844 122.773438 256.238281 122.878906 C 255.882812 123.019531 255.742188 123.375 255.847656 123.730469 C 256.058594 124.117188 256.203125 124.542969 256.34375 124.929688 C 256.449219 125.214844 256.699219 125.355469 256.945312 125.355469 C 257.015625 125.355469 257.085938 125.355469 257.160156 125.320312 C 257.511719 125.214844 257.691406 124.824219 257.546875 124.507812 Z M 257.546875 124.507812 " fill-opacity="1" fill-rule="nonzero"/><path fill="#ed1f24" d="M 248.125 108.09375 C 248.269531 108.09375 248.375 108.058594 248.480469 107.988281 C 248.765625 107.777344 248.835938 107.386719 248.65625 107.070312 C 248.410156 106.714844 248.164062 106.359375 247.914062 106.007812 C 247.703125 105.722656 247.3125 105.652344 246.992188 105.867188 C 246.710938 106.078125 246.640625 106.46875 246.851562 106.785156 C 247.101562 107.105469 247.347656 107.457031 247.59375 107.8125 C 247.738281 107.988281 247.914062 108.09375 248.125 108.09375 Z M 248.125 108.09375 " fill-opacity="1" fill-rule="nonzero"/><path fill="#ed1f24" d="M 252.164062 112.621094 C 251.953125 112.234375 251.738281 111.878906 251.492188 111.488281 C 251.3125 111.171875 250.925781 111.066406 250.605469 111.277344 C 250.289062 111.453125 250.179688 111.84375 250.394531 112.164062 C 250.605469 112.515625 250.820312 112.871094 251.03125 113.257812 C 251.136719 113.472656 251.386719 113.578125 251.597656 113.578125 C 251.703125 113.578125 251.808594 113.542969 251.917969 113.507812 C 252.234375 113.328125 252.339844 112.941406 252.164062 112.621094 Z M 252.164062 112.621094 " fill-opacity="1" fill-rule="nonzero"/><path fill="#ed1f24" d="M 242.601562 198.503906 C 242.777344 198.503906 242.957031 198.433594 243.097656 198.292969 C 243.378906 197.976562 243.664062 197.621094 243.949219 197.304688 C 244.195312 197.019531 244.160156 196.632812 243.875 196.382812 C 243.59375 196.136719 243.167969 196.171875 242.957031 196.453125 C 242.671875 196.773438 242.390625 197.089844 242.105469 197.410156 C 241.859375 197.691406 241.894531 198.082031 242.175781 198.328125 C 242.316406 198.433594 242.460938 198.503906 242.601562 198.503906 Z M 242.601562 198.503906 " fill-opacity="1" fill-rule="nonzero"/><path fill="#ed1f24" d="M 258.007812 170.242188 C 258.078125 170.242188 258.113281 170.277344 258.183594 170.277344 C 258.46875 170.277344 258.714844 170.101562 258.824219 169.820312 C 258.929688 169.394531 259.070312 168.96875 259.175781 168.546875 C 259.285156 168.191406 259.070312 167.839844 258.714844 167.730469 C 258.363281 167.625 258.007812 167.839844 257.902344 168.191406 C 257.796875 168.617188 257.691406 169.003906 257.546875 169.429688 C 257.441406 169.785156 257.652344 170.136719 258.007812 170.242188 Z M 258.007812 170.242188 " fill-opacity="1" fill-rule="nonzero"/><path fill="#ed1f24" d="M 192.449219 221.746094 C 192.027344 221.78125 191.601562 221.816406 191.175781 221.816406 C 190.820312 221.816406 190.539062 222.132812 190.574219 222.488281 C 190.574219 222.84375 190.890625 223.125 191.210938 223.125 L 191.246094 223.125 C 191.671875 223.089844 192.132812 223.089844 192.558594 223.054688 C 192.910156 223.019531 193.195312 222.734375 193.160156 222.347656 C 193.125 221.957031 192.839844 221.710938 192.449219 221.746094 Z M 192.449219 221.746094 " fill-opacity="1" fill-rule="nonzero"/><path fill="#ed1f24" d="M 256.804688 173.957031 C 256.484375 173.816406 256.09375 173.992188 255.953125 174.347656 C 255.8125 174.734375 255.636719 175.160156 255.492188 175.550781 C 255.351562 175.867188 255.527344 176.257812 255.847656 176.398438 C 255.917969 176.433594 255.988281 176.433594 256.097656 176.433594 C 256.34375 176.433594 256.589844 176.292969 256.699219 176.007812 C 256.875 175.585938 257.015625 175.195312 257.160156 174.769531 C 257.300781 174.453125 257.121094 174.0625 256.804688 173.957031 Z M 256.804688 173.957031 " fill-opacity="1" fill-rule="nonzero"/><path fill="#ed1f24" d="M 249.96875 187.964844 C 250.074219 188.035156 250.179688 188.070312 250.324219 188.070312 C 250.535156 188.070312 250.746094 187.964844 250.890625 187.753906 C 251.101562 187.363281 251.351562 187.011719 251.5625 186.621094 C 251.738281 186.300781 251.632812 185.914062 251.3125 185.738281 C 250.996094 185.558594 250.605469 185.664062 250.429688 185.984375 C 250.214844 186.335938 250.003906 186.726562 249.757812 187.082031 C 249.578125 187.398438 249.648438 187.789062 249.96875 187.964844 Z M 249.96875 187.964844 " fill-opacity="1" fill-rule="nonzero"/><path fill="#ed1f24" d="M 121.722656 181.773438 C 121.402344 181.953125 121.261719 182.339844 121.4375 182.660156 C 121.652344 183.046875 121.828125 183.4375 122.039062 183.828125 C 122.148438 184.039062 122.394531 184.179688 122.605469 184.179688 C 122.714844 184.179688 122.820312 184.144531 122.925781 184.109375 C 123.246094 183.933594 123.351562 183.542969 123.210938 183.226562 C 122.996094 182.835938 122.785156 182.445312 122.605469 182.058594 C 122.429688 181.738281 122.039062 181.597656 121.722656 181.773438 Z M 121.722656 181.773438 " fill-opacity="1" fill-rule="nonzero"/><path fill="#ed1f24" d="M 233.746094 205.4375 C 233.429688 205.722656 233.074219 205.96875 232.753906 206.253906 C 232.472656 206.464844 232.4375 206.890625 232.648438 207.171875 C 232.789062 207.347656 232.96875 207.417969 233.144531 207.417969 C 233.285156 207.417969 233.429688 207.382812 233.535156 207.277344 C 233.890625 206.996094 234.207031 206.746094 234.5625 206.464844 C 234.84375 206.253906 234.878906 205.828125 234.667969 205.542969 C 234.421875 205.261719 234.03125 205.226562 233.746094 205.4375 Z M 233.746094 205.4375 " fill-opacity="1" fill-rule="nonzero"/><path fill="#ed1f24" d="M 217.347656 215.554688 C 216.960938 215.730469 216.570312 215.910156 216.179688 216.085938 C 215.863281 216.226562 215.683594 216.617188 215.824219 216.933594 C 215.933594 217.183594 216.179688 217.324219 216.429688 217.324219 C 216.5 217.324219 216.605469 217.324219 216.675781 217.289062 C 217.066406 217.113281 217.492188 216.933594 217.878906 216.757812 C 218.199219 216.617188 218.339844 216.226562 218.199219 215.910156 C 218.058594 215.554688 217.667969 215.414062 217.347656 215.554688 Z M 217.347656 215.554688 " fill-opacity="1" fill-rule="nonzero"/><path fill="#ed1f24" d="M 246.921875 191.359375 C 246.675781 191.714844 246.425781 192.066406 246.179688 192.386719 C 245.964844 192.667969 246.039062 193.09375 246.320312 193.304688 C 246.425781 193.375 246.570312 193.449219 246.710938 193.449219 C 246.921875 193.449219 247.101562 193.339844 247.242188 193.199219 C 247.488281 192.847656 247.773438 192.492188 248.019531 192.140625 C 248.199219 191.820312 248.125 191.429688 247.84375 191.21875 C 247.558594 191.007812 247.136719 191.078125 246.921875 191.359375 Z M 246.921875 191.359375 " fill-opacity="1" fill-rule="nonzero"/><path fill="#ed1f24" d="M 223.121094 212.691406 C 222.730469 212.902344 222.378906 213.113281 221.988281 213.292969 C 221.667969 213.46875 221.5625 213.855469 221.707031 214.175781 C 221.8125 214.386719 222.058594 214.53125 222.273438 214.53125 C 222.378906 214.53125 222.484375 214.492188 222.589844 214.457031 C 222.980469 214.246094 223.371094 214.035156 223.722656 213.820312 C 224.042969 213.644531 224.148438 213.257812 223.972656 212.9375 C 223.832031 212.621094 223.40625 212.511719 223.121094 212.691406 Z M 223.121094 212.691406 " fill-opacity="1" fill-rule="nonzero"/><path fill="#ed1f24" d="M 260.59375 135.898438 C 260.523438 135.542969 260.203125 135.296875 259.851562 135.367188 C 259.496094 135.4375 259.246094 135.789062 259.320312 136.144531 C 259.390625 136.570312 259.460938 136.992188 259.53125 137.417969 C 259.566406 137.734375 259.851562 137.949219 260.167969 137.949219 C 260.203125 137.949219 260.238281 137.949219 260.273438 137.949219 C 260.628906 137.878906 260.878906 137.558594 260.804688 137.207031 C 260.734375 136.78125 260.664062 136.355469 260.59375 135.898438 Z M 260.59375 135.898438 " fill-opacity="1" fill-rule="nonzero"/><path fill="#ed1f24" d="M 228.578125 209.292969 C 228.222656 209.542969 227.867188 209.789062 227.515625 210 C 227.230469 210.214844 227.125 210.601562 227.335938 210.886719 C 227.476562 211.0625 227.65625 211.167969 227.867188 211.167969 C 227.972656 211.167969 228.117188 211.132812 228.222656 211.0625 C 228.578125 210.816406 228.964844 210.566406 229.320312 210.320312 C 229.601562 210.109375 229.710938 209.71875 229.496094 209.402344 C 229.285156 209.152344 228.894531 209.082031 228.578125 209.292969 Z M 228.578125 209.292969 " fill-opacity="1" fill-rule="nonzero"/><path fill="#ed1f24" d="M 260.167969 142.511719 C 260.203125 142.9375 260.238281 143.359375 260.273438 143.785156 C 260.308594 144.136719 260.59375 144.386719 260.914062 144.386719 L 260.949219 144.386719 C 261.300781 144.351562 261.585938 144.03125 261.550781 143.679688 C 261.515625 143.253906 261.480469 142.792969 261.445312 142.371094 C 261.410156 142.015625 261.089844 141.734375 260.734375 141.769531 C 260.382812 141.839844 260.132812 142.15625 260.167969 142.511719 Z M 260.167969 142.511719 " fill-opacity="1" fill-rule="nonzero"/><path fill="#ed1f24" d="M 171.945312 220.222656 C 171.589844 220.152344 171.234375 220.367188 171.164062 220.71875 C 171.09375 221.074219 171.304688 221.425781 171.660156 221.496094 C 172.085938 221.605469 172.511719 221.675781 172.933594 221.78125 C 172.972656 221.78125 173.007812 221.78125 173.078125 221.78125 C 173.394531 221.78125 173.644531 221.570312 173.714844 221.25 C 173.785156 220.894531 173.574219 220.542969 173.21875 220.472656 C 172.792969 220.402344 172.367188 220.296875 171.945312 220.222656 Z M 171.945312 220.222656 " fill-opacity="1" fill-rule="nonzero"/><path fill="#ed1f24" d="M 148.25 210.390625 C 147.929688 210.214844 147.542969 210.285156 147.363281 210.601562 C 147.1875 210.921875 147.257812 211.308594 147.578125 211.488281 C 147.929688 211.734375 148.320312 211.945312 148.675781 212.195312 C 148.78125 212.265625 148.886719 212.300781 149.027344 212.300781 C 149.242188 212.300781 149.453125 212.195312 149.59375 211.984375 C 149.738281 211.664062 149.628906 211.273438 149.347656 211.0625 C 148.992188 210.851562 148.605469 210.601562 148.25 210.390625 Z M 148.25 210.390625 " fill-opacity="1" fill-rule="nonzero"/><path fill="#ed1f24" d="M 137.128906 202.539062 C 136.878906 202.785156 136.914062 203.210938 137.164062 203.457031 C 137.484375 203.742188 137.800781 204.058594 138.121094 204.34375 C 138.261719 204.449219 138.402344 204.519531 138.546875 204.519531 C 138.722656 204.519531 138.898438 204.449219 139.039062 204.308594 C 139.289062 204.023438 139.253906 203.632812 139.003906 203.386719 C 138.6875 203.070312 138.367188 202.785156 138.050781 202.503906 C 137.800781 202.253906 137.375 202.289062 137.128906 202.539062 Z M 137.128906 202.539062 " fill-opacity="1" fill-rule="nonzero"/><path fill="#ed1f24" d="M 142.972656 206.675781 C 142.6875 206.464844 142.265625 206.5 142.050781 206.78125 C 141.839844 207.066406 141.875 207.492188 142.15625 207.703125 C 142.511719 207.984375 142.867188 208.234375 143.21875 208.480469 C 143.328125 208.550781 143.46875 208.621094 143.609375 208.621094 C 143.820312 208.621094 144 208.515625 144.140625 208.375 C 144.351562 208.054688 144.28125 207.667969 144 207.453125 C 143.644531 207.207031 143.328125 206.925781 142.972656 206.675781 Z M 142.972656 206.675781 " fill-opacity="1" fill-rule="nonzero"/><path fill="#ed1f24" d="M 153.84375 213.609375 C 153.527344 213.433594 153.136719 213.574219 152.960938 213.894531 C 152.78125 214.210938 152.925781 214.601562 153.242188 214.777344 C 153.632812 214.988281 154.023438 215.167969 154.410156 215.378906 C 154.519531 215.414062 154.589844 215.449219 154.695312 215.449219 C 154.941406 215.449219 155.15625 215.308594 155.261719 215.09375 C 155.402344 214.777344 155.296875 214.386719 154.980469 214.210938 C 154.589844 214.035156 154.199219 213.820312 153.84375 213.609375 Z M 153.84375 213.609375 " fill-opacity="1" fill-rule="nonzero"/><path fill="#ed1f24" d="M 259.636719 163.984375 C 259.671875 163.984375 259.707031 163.984375 259.777344 163.984375 C 260.097656 163.984375 260.347656 163.769531 260.417969 163.453125 C 260.488281 163.027344 260.59375 162.601562 260.664062 162.179688 C 260.664062 161.789062 260.453125 161.472656 260.097656 161.398438 C 259.742188 161.328125 259.390625 161.578125 259.355469 161.929688 C 259.285156 162.355469 259.210938 162.78125 259.105469 163.203125 C 259.035156 163.558594 259.285156 163.910156 259.636719 163.984375 Z M 259.636719 163.984375 " fill-opacity="1" fill-rule="nonzero"/><path fill="#ed1f24" d="M 124.875 187.433594 C 124.554688 187.609375 124.484375 188.035156 124.660156 188.320312 C 124.910156 188.671875 125.121094 189.0625 125.371094 189.414062 C 125.511719 189.59375 125.6875 189.699219 125.902344 189.699219 C 126.007812 189.699219 126.148438 189.664062 126.253906 189.59375 C 126.574219 189.378906 126.644531 188.992188 126.433594 188.707031 C 126.21875 188.390625 126.007812 188.035156 125.757812 187.648438 C 125.582031 187.328125 125.15625 187.257812 124.875 187.433594 Z M 124.875 187.433594 " fill-opacity="1" fill-rule="nonzero"/><path fill="#ed1f24" d="M 224.75 84.996094 C 224.363281 84.785156 224.007812 84.570312 223.617188 84.359375 C 223.300781 84.183594 222.910156 84.289062 222.730469 84.605469 C 222.554688 84.925781 222.660156 85.316406 222.980469 85.492188 C 223.371094 85.703125 223.722656 85.914062 224.113281 86.128906 C 224.21875 86.199219 224.328125 86.199219 224.433594 86.199219 C 224.644531 86.199219 224.894531 86.09375 225 85.878906 C 225.175781 85.5625 225.070312 85.171875 224.75 84.996094 Z M 224.75 84.996094 " fill-opacity="1" fill-rule="nonzero"/><path fill="#ed1f24" d="M 128.488281 192.8125 C 128.203125 193.023438 128.132812 193.449219 128.34375 193.730469 C 128.59375 194.085938 128.875 194.4375 129.160156 194.757812 C 129.300781 194.933594 129.476562 195.003906 129.65625 195.003906 C 129.796875 195.003906 129.9375 194.96875 130.042969 194.863281 C 130.328125 194.648438 130.363281 194.226562 130.152344 193.941406 C 129.9375 193.660156 129.691406 193.304688 129.40625 192.953125 C 129.195312 192.667969 128.769531 192.597656 128.488281 192.8125 Z M 128.488281 192.8125 " fill-opacity="1" fill-rule="nonzero"/><path fill="#ed1f24" d="M 132.59375 197.867188 C 132.3125 198.117188 132.3125 198.503906 132.558594 198.789062 C 132.84375 199.105469 133.160156 199.425781 133.445312 199.742188 C 133.585938 199.886719 133.761719 199.957031 133.90625 199.957031 C 134.082031 199.957031 134.222656 199.886719 134.367188 199.777344 C 134.648438 199.53125 134.648438 199.140625 134.402344 198.859375 C 134.117188 198.542969 133.800781 198.222656 133.515625 197.90625 C 133.269531 197.621094 132.878906 197.621094 132.59375 197.867188 Z M 132.59375 197.867188 " fill-opacity="1" fill-rule="nonzero"/><path fill="#ed1f24" d="M 159.652344 216.332031 C 159.335938 216.191406 158.945312 216.367188 158.804688 216.6875 C 158.664062 217.003906 158.839844 217.394531 159.15625 217.535156 C 159.546875 217.714844 159.972656 217.855469 160.363281 218.03125 C 160.433594 218.066406 160.503906 218.066406 160.609375 218.066406 C 160.859375 218.066406 161.105469 217.925781 161.210938 217.640625 C 161.355469 217.359375 161.210938 216.96875 160.859375 216.828125 C 160.46875 216.6875 160.042969 216.511719 159.652344 216.332031 Z M 159.652344 216.332031 " fill-opacity="1" fill-rule="nonzero"/><path fill="#ed1f24" d="M 243.699219 102.683594 C 243.839844 102.824219 244.019531 102.929688 244.195312 102.929688 C 244.335938 102.929688 244.480469 102.894531 244.621094 102.789062 C 244.902344 102.578125 244.9375 102.152344 244.691406 101.867188 C 244.40625 101.515625 244.125 101.195312 243.839844 100.878906 C 243.59375 100.59375 243.203125 100.558594 242.921875 100.808594 C 242.636719 101.054688 242.601562 101.445312 242.847656 101.726562 C 243.167969 102.011719 243.417969 102.328125 243.699219 102.683594 Z M 243.699219 102.683594 " fill-opacity="1" fill-rule="nonzero"/><path fill="#ed1f24" d="M 238.527344 201.160156 C 238.210938 201.441406 237.925781 201.761719 237.609375 202.042969 C 237.359375 202.289062 237.324219 202.679688 237.574219 202.960938 C 237.714844 203.105469 237.855469 203.175781 238.03125 203.175781 C 238.210938 203.175781 238.351562 203.105469 238.492188 202.996094 C 238.8125 202.714844 239.128906 202.398438 239.449219 202.078125 C 239.699219 201.832031 239.699219 201.40625 239.449219 201.160156 C 239.203125 200.910156 238.777344 200.910156 238.527344 201.160156 Z M 238.527344 201.160156 " fill-opacity="1" fill-rule="nonzero"/><path fill="#ed1f24" d="M 261.335938 156.980469 C 261.371094 156.554688 261.410156 156.09375 261.480469 155.671875 C 261.515625 155.28125 261.230469 154.996094 260.878906 154.960938 C 260.523438 154.925781 260.203125 155.210938 260.167969 155.5625 C 260.132812 155.988281 260.097656 156.414062 260.0625 156.835938 C 260.027344 157.191406 260.273438 157.507812 260.628906 157.542969 C 260.664062 157.542969 260.664062 157.542969 260.699219 157.542969 C 261.019531 157.542969 261.300781 157.296875 261.335938 156.980469 Z M 261.335938 156.980469 " fill-opacity="1" fill-rule="nonzero"/><path fill="#ed1f24" d="M 235.058594 93.664062 C 235.234375 93.664062 235.410156 93.589844 235.554688 93.414062 C 235.800781 93.132812 235.765625 92.742188 235.484375 92.496094 C 235.164062 92.210938 234.808594 91.929688 234.457031 91.644531 C 234.171875 91.433594 233.78125 91.46875 233.535156 91.753906 C 233.285156 92.035156 233.359375 92.425781 233.640625 92.671875 C 233.996094 92.992188 234.3125 93.273438 234.632812 93.519531 C 234.738281 93.628906 234.917969 93.664062 235.058594 93.664062 Z M 235.058594 93.664062 " fill-opacity="1" fill-rule="nonzero"/><path fill="#ed1f24" d="M 254.324219 179.972656 C 254.007812 179.828125 253.617188 179.972656 253.476562 180.289062 C 253.296875 180.679688 253.085938 181.066406 252.90625 181.457031 C 252.730469 181.773438 252.871094 182.164062 253.191406 182.339844 C 253.296875 182.375 253.367188 182.410156 253.476562 182.410156 C 253.722656 182.410156 253.933594 182.269531 254.042969 182.058594 C 254.253906 181.667969 254.429688 181.28125 254.609375 180.890625 C 254.785156 180.5 254.644531 180.113281 254.324219 179.972656 Z M 254.324219 179.972656 " fill-opacity="1" fill-rule="nonzero"/><path fill="#ed1f24" d="M 229.53125 89.59375 C 229.640625 89.664062 229.78125 89.699219 229.921875 89.699219 C 230.132812 89.699219 230.3125 89.59375 230.453125 89.417969 C 230.664062 89.136719 230.59375 88.710938 230.3125 88.5 C 229.957031 88.25 229.601562 88.003906 229.214844 87.753906 C 228.929688 87.542969 228.503906 87.613281 228.292969 87.933594 C 228.117188 88.25 228.1875 88.675781 228.46875 88.851562 C 228.824219 89.097656 229.179688 89.347656 229.53125 89.59375 Z M 229.53125 89.59375 " fill-opacity="1" fill-rule="nonzero"/><path fill="#ed1f24" d="M 165.710938 218.5625 C 165.355469 218.457031 165 218.632812 164.894531 218.984375 C 164.789062 219.339844 164.964844 219.695312 165.320312 219.800781 C 165.746094 219.941406 166.171875 220.046875 166.558594 220.1875 C 166.632812 220.222656 166.667969 220.222656 166.738281 220.222656 C 167.019531 220.222656 167.269531 220.046875 167.375 219.765625 C 167.515625 219.410156 167.304688 219.023438 166.949219 218.949219 C 166.523438 218.84375 166.136719 218.703125 165.710938 218.5625 Z M 165.710938 218.5625 " fill-opacity="1" fill-rule="nonzero"/><path fill="#ed1f24" d="M 178.320312 221.320312 C 177.964844 221.285156 177.644531 221.53125 177.574219 221.886719 C 177.539062 222.242188 177.789062 222.558594 178.140625 222.628906 C 178.566406 222.699219 179.027344 222.734375 179.453125 222.769531 C 179.488281 222.769531 179.488281 222.769531 179.523438 222.769531 C 179.84375 222.769531 180.125 222.523438 180.160156 222.207031 C 180.195312 221.816406 179.949219 221.496094 179.59375 221.460938 C 179.167969 221.425781 178.742188 221.355469 178.320312 221.320312 Z M 178.320312 221.320312 " fill-opacity="1" fill-rule="nonzero"/><path fill="#ed1f24" d="M 184.730469 221.851562 C 184.375 221.851562 184.054688 222.132812 184.054688 222.488281 C 184.054688 222.84375 184.339844 223.160156 184.695312 223.160156 C 185.117188 223.160156 185.578125 223.195312 186.003906 223.195312 C 186.359375 223.195312 186.640625 222.914062 186.640625 222.558594 C 186.675781 222.167969 186.394531 221.886719 186.003906 221.886719 C 185.578125 221.886719 185.15625 221.851562 184.730469 221.851562 Z M 184.730469 221.851562 " fill-opacity="1" fill-rule="nonzero"/><path fill="#ed1f24" d="M 234.988281 196.382812 C 222.839844 208.550781 206.085938 216.050781 187.597656 216.050781 L 187.597656 216.085938 C 169.109375 216.050781 152.359375 208.550781 140.246094 196.417969 C 128.0625 184.320312 120.554688 167.554688 120.554688 149.089844 C 120.554688 130.625 128.0625 113.894531 140.210938 101.796875 C 152.359375 89.628906 169.109375 82.132812 187.597656 82.132812 L 187.597656 79.40625 C 168.367188 79.40625 150.90625 87.226562 138.296875 99.851562 L 138.261719 99.816406 C 125.652344 112.480469 117.824219 129.882812 117.824219 149.089844 C 117.824219 168.296875 125.652344 185.738281 138.296875 198.328125 L 138.261719 198.363281 C 150.90625 210.992188 168.332031 218.808594 187.597656 218.808594 L 187.597656 218.773438 C 206.828125 218.773438 224.289062 210.957031 236.933594 198.328125 Z M 234.988281 196.382812 " fill-opacity="1" fill-rule="nonzero"/><path fill="#ed1f24" d="M 223.6875 98.648438 C 223.226562 99.25 223.335938 100.136719 223.972656 100.59375 C 226.273438 102.328125 230.488281 106.289062 230.488281 106.289062 C 232.257812 108.09375 233.960938 109.96875 235.484375 111.949219 C 235.765625 112.304688 236.191406 112.480469 236.582031 112.480469 C 236.863281 112.480469 237.183594 112.375 237.429688 112.199219 C 238.03125 111.738281 238.140625 110.851562 237.679688 110.253906 C 236.050781 108.164062 232.402344 104.34375 232.402344 104.34375 C 230.277344 102.1875 228.007812 100.207031 225.636719 98.367188 C 225.035156 97.90625 224.148438 98.011719 223.6875 98.648438 Z M 223.6875 98.648438 " fill-opacity="1" fill-rule="nonzero"/><path fill="#ed1f24" d="M 231.480469 194.507812 C 231.726562 194.261719 232.011719 193.976562 232.257812 193.730469 L 230.3125 191.785156 C 230.0625 192.03125 229.816406 192.28125 229.566406 192.527344 C 229.035156 193.058594 229 193.90625 229.53125 194.472656 C 229.816406 194.757812 230.171875 194.898438 230.523438 194.898438 C 230.878906 194.898438 231.234375 194.757812 231.480469 194.507812 Z M 231.480469 194.507812 " fill-opacity="1" fill-rule="nonzero"/><path fill="#ed1f24" d="M 241.539062 179.335938 C 240.867188 178.945312 240.015625 179.15625 239.625 179.828125 C 237.042969 184.179688 233.890625 188.175781 230.3125 191.75 L 232.257812 193.695312 C 236.050781 189.980469 239.308594 185.808594 242.035156 181.242188 C 242.425781 180.570312 242.210938 179.722656 241.539062 179.335938 Z M 241.539062 179.335938 " fill-opacity="1" fill-rule="nonzero"/><path fill="#ed1f24" d="M 249.046875 142.792969 C 249.117188 142.792969 249.152344 142.792969 249.226562 142.792969 C 249.96875 142.6875 250.535156 142.015625 250.429688 141.238281 C 249.757812 135.613281 248.304688 130.097656 246.144531 124.859375 C 245.859375 124.152344 245.046875 123.800781 244.335938 124.117188 C 243.628906 124.402344 243.273438 125.214844 243.59375 125.921875 C 245.648438 130.945312 247.027344 136.214844 247.667969 141.59375 C 247.738281 142.300781 248.339844 142.792969 249.046875 142.792969 Z M 249.046875 142.792969 " fill-opacity="1" fill-rule="nonzero"/><path fill="#ed1f24" d="M 185.226562 212.230469 L 185.261719 212.230469 C 186.003906 212.230469 186.605469 211.628906 186.640625 210.886719 C 186.675781 210.109375 186.074219 209.472656 185.296875 209.4375 C 179.878906 209.222656 174.492188 208.339844 169.359375 206.710938 C 168.613281 206.5 167.835938 206.890625 167.621094 207.632812 C 167.410156 208.375 167.800781 209.152344 168.542969 209.363281 C 173.925781 211.0625 179.558594 212.019531 185.226562 212.230469 Z M 185.226562 212.230469 " fill-opacity="1" fill-rule="nonzero"/><path fill="#ed1f24" d="M 200.382812 209.507812 C 200.527344 210.144531 201.09375 210.566406 201.730469 210.566406 C 201.835938 210.566406 201.941406 210.566406 202.046875 210.53125 C 207.574219 209.222656 212.886719 207.207031 217.84375 204.484375 C 218.519531 204.128906 218.765625 203.28125 218.410156 202.609375 C 218.058594 201.972656 217.207031 201.726562 216.535156 202.078125 C 211.789062 204.660156 206.6875 206.605469 201.410156 207.84375 C 200.667969 208.019531 200.207031 208.765625 200.382812 209.507812 Z M 200.382812 209.507812 " fill-opacity="1" fill-rule="nonzero"/><path fill="#ed1f24" d="M 142.832031 193.835938 C 145.984375 196.949219 149.453125 199.742188 153.207031 202.148438 C 153.457031 202.289062 153.703125 202.363281 153.953125 202.363281 C 154.410156 202.363281 154.835938 202.148438 155.121094 201.726562 C 155.546875 201.089844 155.332031 200.238281 154.695312 199.816406 C 151.117188 197.515625 147.824219 194.828125 144.777344 191.855469 C 143.964844 191.007812 143.148438 190.15625 142.371094 189.34375 C 141.875 188.777344 140.988281 188.742188 140.421875 189.238281 C 139.855469 189.734375 139.820312 190.617188 140.316406 191.183594 C 141.128906 192.101562 141.980469 192.953125 142.832031 193.835938 Z M 142.832031 193.835938 " fill-opacity="1" fill-rule="nonzero"/><path fill="#ed1f24" d="M 192.910156 87.261719 C 192.839844 88.003906 193.371094 88.675781 194.152344 88.78125 C 199.535156 89.382812 204.847656 90.691406 209.875 92.671875 C 210.054688 92.742188 210.230469 92.777344 210.371094 92.777344 C 210.9375 92.777344 211.433594 92.460938 211.648438 91.894531 C 211.929688 91.1875 211.574219 90.371094 210.867188 90.089844 C 205.589844 88.003906 200.066406 86.625 194.433594 86.023438 C 193.691406 85.953125 192.980469 86.480469 192.910156 87.261719 Z M 192.910156 87.261719 " fill-opacity="1" fill-rule="nonzero"/><path fill="#ed1f24" d="M 244.761719 149.125 C 244.761719 133.351562 238.351562 119.09375 228.046875 108.765625 C 217.703125 98.4375 203.394531 92.035156 187.632812 92.035156 C 171.871094 92.035156 157.597656 98.4375 147.257812 108.765625 C 136.914062 119.09375 130.503906 133.351562 130.503906 149.089844 C 130.503906 164.832031 136.914062 179.050781 147.222656 189.378906 C 157.5625 199.707031 171.835938 206.144531 187.597656 206.144531 L 187.597656 203.246094 C 172.652344 203.246094 159.085938 197.125 149.277344 187.328125 C 139.429688 177.53125 133.375 164.019531 133.375 149.054688 C 133.375 134.128906 139.464844 120.582031 149.277344 110.78125 C 159.085938 101.019531 172.652344 94.9375 187.597656 94.9375 C 202.542969 94.9375 216.144531 101.019531 225.957031 110.816406 C 235.765625 120.617188 241.859375 134.164062 241.859375 149.160156 C 241.859375 164.089844 235.765625 177.566406 225.957031 187.398438 L 228.007812 189.449219 C 238.351562 179.121094 244.761719 164.867188 244.761719 149.125 Z M 244.761719 149.125 " fill-opacity="1" fill-rule="nonzero"/><path fill="#ed1f24" d="M 230.773438 126.453125 C 231.019531 126.453125 231.269531 126.382812 231.515625 126.277344 C 232.222656 125.886719 232.507812 124.96875 232.082031 124.222656 C 230.0625 120.617188 227.585938 117.292969 224.75 114.285156 C 224.183594 113.683594 223.226562 113.648438 222.625 114.214844 C 222.023438 114.78125 221.988281 115.699219 222.554688 116.300781 C 225.210938 119.128906 227.550781 122.277344 229.460938 125.675781 C 229.746094 126.167969 230.242188 126.453125 230.773438 126.453125 Z M 230.773438 126.453125 " fill-opacity="1" fill-rule="nonzero"/><path fill="#ed1f24" d="M 236.96875 147.144531 C 237.003906 147.144531 237.042969 147.144531 237.078125 147.144531 C 237.890625 147.074219 238.527344 146.367188 238.457031 145.554688 C 238.175781 141.449219 237.359375 137.382812 236.085938 133.421875 C 235.835938 132.644531 234.988281 132.183594 234.171875 132.464844 C 233.394531 132.714844 232.933594 133.5625 233.214844 134.375 C 234.457031 138.089844 235.234375 141.910156 235.484375 145.765625 C 235.554688 146.542969 236.191406 147.144531 236.96875 147.144531 Z M 236.96875 147.144531 " fill-opacity="1" fill-rule="nonzero"/><path fill="#ed1f24" d="M 150.234375 116.832031 C 149.59375 116.300781 148.640625 116.40625 148.109375 117.042969 C 145.523438 120.261719 143.289062 123.765625 141.554688 127.515625 C 141.164062 128.292969 141.519531 129.175781 142.265625 129.53125 C 142.476562 129.636719 142.6875 129.671875 142.902344 129.671875 C 143.46875 129.671875 144 129.351562 144.246094 128.824219 C 145.910156 125.285156 147.964844 121.996094 150.445312 118.953125 C 150.976562 118.316406 150.871094 117.363281 150.234375 116.832031 Z M 150.234375 116.832031 " fill-opacity="1" fill-rule="nonzero"/><path fill="#ed1f24" d="M 139.21875 164.902344 C 140.386719 168.476562 141.945312 171.941406 143.820312 175.125 C 144.105469 175.585938 144.601562 175.867188 145.132812 175.867188 C 145.378906 175.867188 145.664062 175.796875 145.910156 175.65625 C 146.621094 175.230469 146.867188 174.3125 146.441406 173.605469 C 144.636719 170.5625 143.148438 167.308594 142.050781 163.945312 C 141.945312 163.59375 141.839844 163.273438 141.734375 162.921875 C 141.484375 162.144531 140.671875 161.683594 139.855469 161.929688 C 139.078125 162.179688 138.617188 162.992188 138.863281 163.804688 C 138.96875 164.160156 139.078125 164.511719 139.21875 164.902344 Z M 139.21875 164.902344 " fill-opacity="1" fill-rule="nonzero"/><path fill="#ed1f24" d="M 193.335938 100.066406 C 193.40625 99.25 192.804688 98.507812 191.953125 98.4375 C 190.503906 98.332031 189.050781 98.261719 187.597656 98.261719 C 184.90625 98.261719 182.25 98.472656 179.59375 98.898438 C 178.777344 99.039062 178.210938 99.816406 178.355469 100.628906 C 178.460938 101.375 179.097656 101.902344 179.84375 101.902344 C 179.914062 101.902344 180.019531 101.902344 180.089844 101.867188 C 182.570312 101.480469 185.082031 101.265625 187.597656 101.265625 C 188.980469 101.265625 190.359375 101.304688 191.707031 101.445312 C 192.558594 101.515625 193.265625 100.878906 193.335938 100.066406 Z M 193.335938 100.066406 " fill-opacity="1" fill-rule="nonzero"/><path fill="#ed1f24" d="M 213.59375 108.871094 C 213.84375 109.050781 214.125 109.121094 214.410156 109.121094 C 214.90625 109.121094 215.402344 108.871094 215.683594 108.414062 C 216.144531 107.707031 215.933594 106.785156 215.222656 106.324219 C 211.753906 104.097656 208 102.292969 204.101562 100.949219 C 203.324219 100.667969 202.472656 101.089844 202.191406 101.867188 C 201.90625 102.683594 202.332031 103.566406 203.109375 103.8125 C 206.792969 105.050781 210.335938 106.785156 213.59375 108.871094 Z M 213.59375 108.871094 " fill-opacity="1" fill-rule="nonzero"/><path fill="#ed1f24" d="M 167.730469 102.328125 C 163.902344 103.957031 160.292969 106.007812 156.996094 108.484375 C 156.324219 108.980469 156.21875 109.933594 156.714844 110.570312 C 156.996094 110.960938 157.457031 111.171875 157.917969 111.171875 C 158.238281 111.171875 158.554688 111.066406 158.839844 110.851562 C 161.957031 108.519531 165.320312 106.574219 168.933594 105.050781 C 169.710938 104.734375 170.066406 103.851562 169.746094 103.070312 C 169.429688 102.292969 168.472656 102.011719 167.730469 102.328125 Z M 167.730469 102.328125 " fill-opacity="1" fill-rule="nonzero"/><path fill="#ed1f24" d="M 140.632812 139.859375 C 140.777344 139.046875 140.246094 138.265625 139.429688 138.089844 C 138.617188 137.914062 137.835938 138.445312 137.660156 139.257812 C 137.023438 142.476562 136.703125 145.765625 136.703125 149.054688 L 136.667969 149.054688 C 136.703125 149.125 136.703125 149.125 136.703125 149.125 C 136.703125 149.941406 136.738281 150.789062 136.773438 151.601562 C 136.808594 152.414062 137.484375 153.015625 138.261719 153.015625 C 138.296875 153.015625 138.296875 153.015625 138.332031 153.015625 C 139.148438 152.980469 139.785156 152.273438 139.75 151.425781 C 139.714844 150.648438 139.679688 149.867188 139.679688 149.089844 L 139.714844 149.089844 C 139.714844 146.011719 140.03125 142.902344 140.632812 139.859375 Z M 140.632812 139.859375 " fill-opacity="1" fill-rule="nonzero"/><g clip-path="url(#c956561881)"><path stroke-linecap="butt" transform="matrix(0.0872191, 0, 0, -0.0874636, 34.296894, 305.180166)" fill="none" stroke-linejoin="miter" d="M 2237.898484 1989.805358 L 1743.812299 2275.013134 L 1249.681326 1989.805358 L 1249.681326 1419.300483 L 1743.812299 1134.003384 L 2237.898484 1419.300483 Z M 2237.898484 1989.805358 " stroke="#df402b" stroke-width="20" stroke-opacity="1" stroke-miterlimit="10"/></g><path fill="#ed1f24" d="M 218.214844 137.667969 L 186.390625 119.242188 L 154.5625 137.667969 L 154.5625 174.527344 L 186.390625 192.957031 L 218.214844 174.527344 L 218.214844 137.667969 " fill-opacity="1" fill-rule="nonzero"/><path stroke-linecap="butt" transform="matrix(0.0872191, 0, 0, -0.0874636, 34.296894, 305.180166)" fill="none" stroke-linejoin="miter" d="M 1743.812299 1704.508259 L 1743.812299 3000.493108 " stroke="#df402b" stroke-width="40" stroke-opacity="1" stroke-miterlimit="10"/><g clip-path="url(#61c21146d2)"><path fill="#ed1f24" d="M 197.144531 43.289062 C 197.144531 49.269531 192.3125 54.117188 186.347656 54.117188 C 180.390625 54.117188 175.558594 49.269531 175.558594 43.289062 C 175.558594 37.3125 180.390625 32.46875 186.347656 32.46875 C 192.3125 32.46875 197.144531 37.3125 197.144531 43.289062 " fill-opacity="1" fill-rule="nonzero"/></g><g clip-path="url(#71f8a310ed)"><path stroke-linecap="butt" transform="matrix(0.0872191, 0, 0, -0.0874636, 34.296894, 305.180166)" fill="none" stroke-linejoin="miter" d="M 1743.812299 1704.508259 L 2884.304024 2320.12116 " stroke="#df402b" stroke-width="40" stroke-opacity="1" stroke-miterlimit="10"/></g><path fill="#ed1f24" d="M 290.484375 112.007812 C 285.242188 114.851562 278.695312 112.882812 275.859375 107.625 C 273.03125 102.359375 274.988281 95.792969 280.238281 92.957031 C 285.480469 90.117188 292.03125 92.082031 294.855469 97.339844 C 297.691406 102.605469 295.734375 109.164062 290.484375 112.007812 " fill-opacity="1" fill-rule="nonzero"/><g clip-path="url(#b7484dc3db)"><path stroke-linecap="butt" transform="matrix(0.0872191, 0, 0, -0.0874636, 34.296894, 305.180166)" fill="none" stroke-linejoin="miter" d="M 1743.812299 1705.714117 L 2810.002993 1352.888963 " stroke="#df402b" stroke-width="40" stroke-opacity="1" stroke-miterlimit="10"/></g><path fill="#ed1f24" d="M 276 195.578125 C 271.097656 193.953125 268.4375 188.644531 270.066406 183.726562 C 271.691406 178.804688 276.976562 176.144531 281.878906 177.773438 C 286.789062 179.398438 289.449219 184.699219 287.824219 189.625 C 286.203125 194.539062 280.910156 197.207031 276 195.578125 " fill-opacity="1" fill-rule="nonzero"/><g clip-path="url(#2c0ed6a7eb)"><path stroke-linecap="butt" transform="matrix(0.0872191, 0, 0, -0.0874636, 34.296894, 305.180166)" fill="none" stroke-linejoin="miter" d="M 2771.217765 1253.115369 C 2715.010534 1271.694516 2684.510834 1332.389375 2703.186862 1388.618093 C 2721.818103 1444.891472 2782.414424 1475.305893 2838.621654 1456.682084 C 2894.918458 1438.102937 2925.418158 1377.497401 2906.786916 1321.179361 C 2888.200462 1264.995305 2827.514568 1234.49156 2771.217765 1253.115369 Z M 2771.217765 1253.115369 " stroke="#df402b" stroke-width="10" stroke-opacity="1" stroke-miterlimit="10"/></g><g clip-path="url(#8e1ad97ffa)"><path fill="#300b0b" d="M 94.601562 117.582031 L 280.847656 117.582031 L 280.847656 186.492188 L 94.601562 186.492188 Z M 94.601562 117.582031 " fill-opacity="1" fill-rule="nonzero"/></g><g clip-path="url(#e712a94891)"><path fill="#300b0b" d="M 211.140625 122.582031 L 211.140625 127.367188 L 162.285156 127.367188 L 162.285156 122.582031 L 114.304688 122.582031 L 114.304688 180.976562 L 162.285156 180.976562 L 162.285156 175.6875 L 211.140625 175.6875 L 211.140625 180.976562 L 275.554688 180.976562 L 275.554688 122.582031 Z M 154.308594 159.289062 L 143.492188 159.289062 L 143.492188 170.121094 L 132.984375 170.121094 L 132.984375 159.289062 L 122.113281 159.289062 L 122.113281 148.769531 L 132.929688 148.769531 L 132.929688 137.941406 L 143.4375 137.941406 L 143.4375 148.769531 L 154.308594 148.769531 Z M 167.457031 165.167969 L 167.457031 159.601562 L 183.945312 159.601562 L 183.945312 165.167969 Z M 189.3125 165.167969 L 189.3125 159.601562 L 205.800781 159.601562 L 205.800781 165.167969 Z M 211.140625 154.339844 L 162.285156 154.339844 L 162.285156 143.285156 L 211.140625 143.285156 Z M 211.140625 154.339844 " fill-opacity="1" fill-rule="nonzero"/></g><path fill="#e7e7e8" d="M 221.871094 154.394531 L 237.660156 154.394531 L 237.660156 170.203125 L 221.871094 170.203125 Z M 221.871094 154.394531 " fill-opacity="1" fill-rule="nonzero"/><path fill="#e7e7e8" d="M 243.359375 154.394531 L 259.148438 154.394531 L 259.148438 170.203125 L 243.359375 170.203125 Z M 243.359375 154.394531 " fill-opacity="1" fill-rule="nonzero"/><path fill="#e7e7e8" d="M 162.285156 154.339844 L 162.285156 170.089844 L 211.140625 170.089844 L 211.140625 154.339844 Z M 183.890625 165.167969 L 167.398438 165.167969 L 167.398438 159.601562 L 183.890625 159.601562 Z M 205.746094 165.167969 L 189.253906 165.167969 L 189.253906 159.601562 L 205.746094 159.601562 Z M 205.746094 165.167969 " fill-opacity="1" fill-rule="nonzero"/><path fill="#e9eaeb" d="M 148.859375 143.425781 L 148.859375 132.964844 L 127.003906 132.964844 L 127.003906 143.425781 L 116.609375 143.425781 L 116.609375 165.28125 L 127.058594 165.28125 L 127.058594 175.746094 L 148.886719 175.746094 L 148.886719 165.28125 L 159.335938 165.28125 L 159.335938 143.425781 C 159.363281 143.425781 148.859375 143.425781 148.859375 143.425781 Z M 154.308594 159.289062 L 143.492188 159.289062 L 143.492188 170.121094 L 132.984375 170.121094 L 132.984375 159.289062 L 122.113281 159.289062 L 122.113281 148.769531 L 132.929688 148.769531 L 132.929688 137.941406 L 143.4375 137.941406 L 143.4375 148.769531 L 154.308594 148.769531 Z M 154.308594 159.289062 " fill-opacity="1" fill-rule="nonzero"/><path fill="#e9eaeb" d="M 221.871094 132.933594 L 239.117188 132.933594 L 239.117188 137.941406 L 221.871094 137.941406 Z M 221.871094 132.933594 " fill-opacity="1" fill-rule="nonzero"/><path fill="#e9eaeb" d="M 241.929688 132.933594 L 259.175781 132.933594 L 259.175781 137.941406 L 241.929688 137.941406 Z M 241.929688 132.933594 " fill-opacity="1" fill-rule="nonzero"/><path fill="#e9eaeb" d="M 162.285156 143.285156 L 211.140625 143.285156 L 211.140625 149.050781 L 162.285156 149.050781 Z M 162.285156 143.285156 " fill-opacity="1" fill-rule="nonzero"/><path fill="#ed1f24" d="M 162.285156 132.933594 L 211.140625 132.933594 L 211.140625 137.941406 L 162.285156 137.941406 Z M 162.285156 132.933594 " fill-opacity="1" fill-rule="nonzero"/><path fill="#ed1f24" d="M 259.175781 159.742188 L 259.175781 164.804688 L 253.785156 164.804688 L 253.785156 170.175781 L 248.726562 170.175781 L 248.726562 164.804688 L 243.359375 164.804688 L 243.359375 159.742188 L 248.726562 159.742188 L 248.726562 154.394531 L 253.785156 154.394531 L 253.785156 159.742188 Z M 259.175781 159.742188 " fill-opacity="1" fill-rule="nonzero"/><path fill="#ed1f24" d="M 237.6875 159.742188 L 237.6875 164.804688 L 232.292969 164.804688 L 232.292969 170.175781 L 227.292969 170.175781 L 227.292969 164.804688 L 221.871094 164.804688 L 221.871094 159.742188 L 227.292969 159.742188 L 227.292969 154.394531 L 232.292969 154.394531 L 232.292969 159.742188 Z M 237.6875 159.742188 " fill-opacity="1" fill-rule="nonzero"/><g fill="#ffffff" fill-opacity="1"><g transform="translate(101.456462, 278.643971)"><g><path d="M 1.671875 -21.304688 L 1.671875 0 L 6.078125 0 L 6.078125 -14.210938 L 11.417969 -3.039062 L 13.664062 -3.039062 L 19.003906 -14.210938 L 19.003906 0 L 23.4375 0 L 23.4375 -21.304688 L 19.003906 -21.304688 L 12.539062 -8.105469 L 6.078125 -21.304688 Z M 1.671875 -21.304688 "/></g></g></g><g fill="#ffffff" fill-opacity="1"><g transform="translate(126.509318, 278.643971)"><g><path d="M 1.671875 -21.304688 L 1.671875 0 L 18.703125 0 L 18.703125 -3.941406 L 6.078125 -3.941406 L 6.078125 -8.679688 L 15.664062 -8.679688 L 15.664062 -12.625 L 6.078125 -12.625 L 6.078125 -17.359375 L 18.703125 -17.359375 L 18.703125 -21.304688 Z M 1.671875 -21.304688 "/></g></g></g><g fill="#ffffff" fill-opacity="1"><g transform="translate(145.839716, 278.643971)"><g><path d="M 4.710938 -21.304688 C 3.011719 -21.304688 1.671875 -19.960938 1.671875 -18.265625 L 1.671875 -3.039062 C 1.671875 -1.339844 3.011719 0 4.710938 0 L 17.03125 0 C 18.730469 0 20.070312 -1.339844 20.070312 -3.039062 L 20.070312 -11.71875 L 11.253906 -11.71875 L 11.253906 -7.777344 L 15.664062 -7.777344 L 15.664062 -4.738281 C 15.664062 -4.273438 15.304688 -3.941406 14.839844 -3.941406 L 6.925781 -3.941406 C 6.460938 -3.941406 6.078125 -4.273438 6.078125 -4.738281 L 6.078125 -16.566406 C 6.078125 -17.03125 6.460938 -17.359375 6.925781 -17.359375 L 14.839844 -17.359375 C 15.304688 -17.359375 15.664062 -17.03125 15.664062 -16.566406 L 15.664062 -15.386719 L 20.070312 -15.386719 L 20.070312 -18.265625 C 20.070312 -19.960938 18.730469 -21.304688 17.03125 -21.304688 Z M 4.710938 -21.304688 "/></g></g></g><g fill="#ffffff" fill-opacity="1"><g transform="translate(167.552187, 278.643971)"><g><path d="M 7.640625 -21.304688 L 0.300781 0 L 4.929688 0 L 6.515625 -4.492188 L 15.855469 -4.492188 L 17.441406 0 L 22.070312 0 L 14.703125 -21.304688 Z M 7.886719 -8.433594 L 11.171875 -17.742188 L 14.457031 -8.433594 Z M 7.886719 -8.433594 "/></g></g></g><g fill="#ffffff" fill-opacity="1"><g transform="translate(189.867022, 278.643971)"><g><path d="M 4.710938 -21.304688 C 3.011719 -21.304688 1.671875 -19.960938 1.671875 -18.265625 L 1.671875 -3.039062 C 1.671875 -1.339844 3.011719 0 4.710938 0 L 17.03125 0 C 18.730469 0 20.070312 -1.339844 20.070312 -3.039062 L 20.070312 -6.023438 L 15.664062 -6.023438 L 15.664062 -4.738281 C 15.664062 -4.273438 15.304688 -3.941406 14.839844 -3.941406 L 6.925781 -3.941406 C 6.460938 -3.941406 6.078125 -4.273438 6.078125 -4.738281 L 6.078125 -16.566406 C 6.078125 -17.03125 6.460938 -17.359375 6.925781 -17.359375 L 14.839844 -17.359375 C 15.304688 -17.359375 15.664062 -17.03125 15.664062 -16.566406 L 15.664062 -15.277344 L 20.070312 -15.277344 L 20.070312 -18.265625 C 20.070312 -19.960938 18.730469 -21.304688 17.03125 -21.304688 Z M 4.710938 -21.304688 "/></g></g></g><g fill="#ffffff" fill-opacity="1"><g transform="translate(211.333077, 278.643971)"><g><path d="M 4.710938 -21.304688 C 3.066406 -21.304688 1.671875 -19.90625 1.671875 -18.265625 L 1.671875 -3.039062 C 1.671875 -1.394531 3.066406 0 4.710938 0 L 17.03125 0 C 18.675781 0 20.070312 -1.394531 20.070312 -3.039062 L 20.070312 -18.265625 C 20.070312 -19.90625 18.675781 -21.304688 17.03125 -21.304688 Z M 6.925781 -17.359375 L 14.839844 -17.359375 C 15.304688 -17.359375 15.664062 -17.03125 15.664062 -16.566406 L 15.664062 -4.738281 C 15.664062 -4.273438 15.304688 -3.941406 14.839844 -3.941406 L 6.925781 -3.941406 C 6.460938 -3.941406 6.078125 -4.273438 6.078125 -4.738281 L 6.078125 -16.566406 C 6.078125 -17.03125 6.460938 -17.359375 6.925781 -17.359375 Z M 6.925781 -17.359375 "/></g></g></g><g fill="#ffffff" fill-opacity="1"><g transform="translate(233.045549, 278.643971)"><g><path d="M 4.710938 -21.304688 C 3.066406 -21.304688 1.671875 -19.90625 1.671875 -18.265625 L 1.671875 -3.039062 C 1.671875 -1.394531 3.066406 0 4.710938 0 L 17.03125 0 C 18.675781 0 20.070312 -1.394531 20.070312 -3.039062 L 20.070312 -18.265625 C 20.070312 -19.90625 18.675781 -21.304688 17.03125 -21.304688 Z M 6.925781 -17.359375 L 14.839844 -17.359375 C 15.304688 -17.359375 15.664062 -17.03125 15.664062 -16.566406 L 15.664062 -4.738281 C 15.664062 -4.273438 15.304688 -3.941406 14.839844 -3.941406 L 6.925781 -3.941406 C 6.460938 -3.941406 6.078125 -4.273438 6.078125 -4.738281 L 6.078125 -16.566406 C 6.078125 -17.03125 6.460938 -17.359375 6.925781 -17.359375 Z M 6.925781 -17.359375 "/></g></g></g><g fill="#ffffff" fill-opacity="1"><g transform="translate(254.75802, 278.643971)"><g><path d="M 1.671875 -21.304688 L 1.671875 0 L 18.703125 0 L 18.703125 -3.941406 L 6.078125 -3.941406 L 6.078125 -21.304688 Z M 1.671875 -21.304688 "/></g></g></g><g fill="#ed1f24" fill-opacity="1"><g transform="translate(111.455273, 312.694545)"><g><path d="M 5.960938 -26.957031 C 3.8125 -26.957031 2.113281 -25.261719 2.113281 -23.113281 L 2.113281 -3.847656 C 2.113281 -1.699219 3.8125 0 5.960938 0 L 21.554688 0 C 23.703125 0 25.398438 -1.699219 25.398438 -3.847656 L 25.398438 -14.832031 L 14.242188 -14.832031 L 14.242188 -9.839844 L 19.820312 -9.839844 L 19.820312 -5.996094 C 19.820312 -5.40625 19.371094 -4.988281 18.78125 -4.988281 L 8.765625 -4.988281 C 8.175781 -4.988281 7.691406 -5.40625 7.691406 -5.996094 L 7.691406 -20.964844 C 7.691406 -21.554688 8.175781 -21.96875 8.765625 -21.96875 L 18.78125 -21.96875 C 19.371094 -21.96875 19.820312 -21.554688 19.820312 -20.964844 L 19.820312 -19.472656 L 25.398438 -19.472656 L 25.398438 -23.113281 C 25.398438 -25.261719 23.703125 -26.957031 21.554688 -26.957031 Z M 5.960938 -26.957031 "/></g></g></g><g fill="#ed1f24" fill-opacity="1"><g transform="translate(138.924465, 312.694545)"><g><path d="M 9.667969 -26.957031 L 0.382812 0 L 6.238281 0 L 8.246094 -5.683594 L 20.0625 -5.683594 L 22.074219 0 L 27.929688 0 L 18.609375 -26.957031 Z M 9.980469 -10.671875 L 14.136719 -22.453125 L 18.296875 -10.671875 Z M 9.980469 -10.671875 "/></g></g></g><g fill="#ed1f24" fill-opacity="1"><g transform="translate(167.155732, 312.694545)"><g><path d="M 2.113281 -26.957031 L 2.113281 0 L 7.691406 0 L 7.691406 -17.984375 L 14.449219 -3.847656 L 17.289062 -3.847656 L 24.046875 -17.984375 L 24.046875 0 L 29.660156 0 L 29.660156 -26.957031 L 24.046875 -26.957031 L 15.871094 -10.257812 L 7.691406 -26.957031 Z M 2.113281 -26.957031 "/></g></g></g><g fill="#ed1f24" fill-opacity="1"><g transform="translate(198.850954, 312.694545)"><g><path d="M 2.113281 -26.957031 L 2.113281 0 L 7.691406 0 L 7.691406 -26.957031 Z M 2.113281 -26.957031 "/></g></g></g><g fill="#ed1f24" fill-opacity="1"><g transform="translate(208.619312, 312.694545)"><g><path d="M 2.113281 -26.957031 L 2.113281 0 L 7.691406 0 L 7.691406 -17.84375 L 19.820312 0 L 25.398438 0 L 25.398438 -26.957031 L 19.820312 -26.957031 L 19.820312 -9.078125 L 7.691406 -26.957031 Z M 2.113281 -26.957031 "/></g></g></g><g fill="#ed1f24" fill-opacity="1"><g transform="translate(236.088504, 312.694545)"><g><path d="M 5.960938 -26.957031 C 3.8125 -26.957031 2.113281 -25.261719 2.113281 -23.113281 L 2.113281 -3.847656 C 2.113281 -1.699219 3.8125 0 5.960938 0 L 21.554688 0 C 23.703125 0 25.398438 -1.699219 25.398438 -3.847656 L 25.398438 -14.832031 L 14.242188 -14.832031 L 14.242188 -9.839844 L 19.820312 -9.839844 L 19.820312 -5.996094 C 19.820312 -5.40625 19.371094 -4.988281 18.78125 -4.988281 L 8.765625 -4.988281 C 8.175781 -4.988281 7.691406 -5.40625 7.691406 -5.996094 L 7.691406 -20.964844 C 7.691406 -21.554688 8.175781 -21.96875 8.765625 -21.96875 L 18.78125 -21.96875 C 19.371094 -21.96875 19.820312 -21.554688 19.820312 -20.964844 L 19.820312 -19.472656 L 25.398438 -19.472656 L 25.398438 -23.113281 C 25.398438 -25.261719 23.703125 -26.957031 21.554688 -26.957031 Z M 5.960938 -26.957031 "/></g></g></g></svg>